<?xml version="1.0" encoding="utf-8"?>
<!-- Generator: Adobe Illustrator 24.0.1, SVG Export Plug-In . SVG Version: 6.00 Build 0)  -->
<svg version="1.1" id="Camada_1" xmlns="http://www.w3.org/2000/svg" xmlns:xlink="http://www.w3.org/1999/xlink" x="0px" y="0px"
	 viewBox="0 0 1366 768" style="enable-background:new 0 0 1366 768;" xml:space="preserve">
<style type="text/css">
	.st0{fill:#191F2B;}
	.st1{fill:#FFFFFF;}
</style>
<g>
	<circle class="st0" cx="-454.2" cy="1272.6" r="472"/>
	<path class="st1" d="M-166.3,1157.8c-69.3,101.7-160.1,174-271,220.1c-15.1-23.9-29-48.2-45.1-71c-16.4-23.1-35-44.7-52.8-66.8
		c-4.4-5.4-9.5-10.3-13.8-15.8c-1.6-2-2.5-5.3-2.4-7.9c0.6-14.3,1.5-28.6,2.4-43c8.9-0.7,77.1,25.1,104.5,39.1
		c33.3,16.9,66.2,34.6,99.3,52c0.4-0.6,0.9-1.2,1.3-1.8c-7.5-6.1-14.8-12.7-22.6-18.4c-35.1-25.6-72.4-47.6-112-65.4
		c-41.6-18.7-84.8-32.7-129.8-40.7c-18.2-3.2-36.5-5.8-54.7-8.9c-2.7-0.5-5.5-1.8-7.9-3.2c-42.2-25.3-86.6-45.7-133.1-61.7
		c-0.8-0.3-1.5-0.5-2.2-2.6c17,0.7,33.9,1.5,50.9,2.2c2.4,0.1,4.7,0.1,7.1,0.1c21.4,0.5,42.8,0.5,64.2,1.8c29.3,1.7,58.7,3.8,87.9,7
		c35.1,3.8,70.1,8.5,105,13.8c41.9,6.4,83.9,12.8,125.4,21.2c43.1,8.8,85.9,19.8,128.6,30.4
		C-214.1,1144.1-191.2,1150.9-166.3,1157.8z"/>
	
		<text transform="matrix(1.4867 -2.913971e-03 1.960000e-03 1 -763.8632 1475.6346)" class="st1" style="font-family:'BankGothicBT-Medium'; font-size:77.1807px;">OUTPLAY</text>
</g>
</svg>
