<svg xmlns="http://www.w3.org/2000/svg" viewBox="0 0 944 944"><defs><style>.cls-1{fill:#191f2b;}.cls-2,.cls-3{fill:#fff;}.cls-3{font-size:77.18px;font-family:BankGothicBT-Medium, Bank Gothic BT;font-weight:500;}.cls-4{letter-spacing:-0.02em;}.cls-5{letter-spacing:-0.06em;}</style></defs><title>logo</title><g id="Camada_2" data-name="Camada 2"><g id="Camada_1-2" data-name="Camada 1"><circle class="cls-1" cx="472" cy="472" r="472"/><path class="cls-2" d="M759.89,357.24c-69.29,101.69-160,174-271,220.13-15.06-23.91-29-48.23-45.1-70.95-16.43-23.11-35-44.69-52.78-66.83-4.37-5.44-9.53-10.26-13.81-15.77a13,13,0,0,1-2.39-7.9c.56-14.31,1.53-28.6,2.36-43,8.94-.69,77.11,25.13,104.5,39.06,33.29,16.94,66.21,34.63,99.29,52l1.33-1.85c-7.51-6.14-14.76-12.65-22.59-18.37a620.23,620.23,0,0,0-112-65.39c-41.6-18.67-84.82-32.74-129.83-40.73-18.18-3.22-36.47-5.79-54.68-8.86a23.81,23.81,0,0,1-7.91-3.21,697.28,697.28,0,0,0-133.15-61.67c-.75-.26-1.51-.5-2.16-2.63l50.89,2.18c2.36.1,4.71.09,7.07.15,21.39.54,42.82.51,64.18,1.78,29.32,1.75,58.67,3.77,87.86,7q52.65,5.76,105,13.8c41.93,6.41,83.91,12.79,125.44,21.25,43.15,8.8,85.86,19.79,128.62,30.37C712.14,343.49,735,350.37,759.89,357.24Z"/><text class="cls-3" transform="translate(162.38 675.07) rotate(-0.11) scale(1.49 1)">OUTP<tspan class="cls-4" x="238.64" y="0">L</tspan><tspan class="cls-5" x="289.89" y="0">A</tspan><tspan x="345.07" y="0">Y</tspan></text></g></g></svg>